<svg width="120" height="120" viewBox="0 0 120 120" fill="none" xmlns="http://www.w3.org/2000/svg">
<circle cx="60" cy="60" r="60" fill="#0E4AC0"/>
<path d="M71.2212 20C50.3941 20 42.3372 44.9933 58.6543 61.3333C69.1012 71.8 84.8682 72.9933 93.8751 63.9733C109.072 48.7533 93.9018 20 71.2212 20ZM87.585 57.6233C80.9681 64.25 70.7112 60.6767 71.5446 51.8967C71.7313 49.93 70.0712 48.2767 68.1145 48.4667C59.4176 49.2967 55.7509 39.06 62.401 32.3967C69.0512 25.7367 79.2748 29.4133 78.4414 38.1233C78.2547 40.1033 79.9215 41.7467 81.8715 41.5567C90.5617 40.73 94.2385 50.9567 87.585 57.6233ZM48.2574 81.1333L55.3209 88.2067L50.6107 92.9267L45.9006 88.2067L43.5472 90.5667L48.2574 95.2833L43.5472 100L36.4837 92.9233L29.4169 100L20 90.5667L49.6374 60.8833C50.9041 62.7067 52.3408 64.44 53.9475 66.05C55.5342 67.64 57.2542 69.0567 59.061 70.3133L48.2574 81.1333Z" fill="white"/>
</svg>
