<svg width="120" height="120" viewBox="0 0 120 120" fill="none" xmlns="http://www.w3.org/2000/svg">
<circle cx="60" cy="60" r="60" fill="#0E4AC0"/>
<path d="M86.7586 38.333C85.2026 38.333 73.5586 42.333 58.6666 42.333C43.6666 42.333 32.2466 38.333 30.5706 38.333C28.4186 38.333 26.6666 40.085 26.6666 42.237C26.6666 44.049 27.9506 45.653 29.6946 46.041C38.3426 48.293 47.9786 49.833 47.9786 58.569C47.9786 72.829 38.6946 86.165 34.9386 92.473C34.5946 93.069 34.4146 93.749 34.4146 94.429C34.4146 96.585 36.1666 98.333 38.3226 98.333C39.3666 98.333 40.3546 97.921 41.0986 97.173C44.1746 94.085 50.2666 84.885 53.0546 80.445C54.6186 77.957 56.2186 75.725 58.6906 75.721C61.1026 75.725 62.7106 77.957 64.2786 80.445C67.0666 84.885 73.1546 94.085 76.2306 97.173C76.9706 97.921 77.9586 98.333 79.0106 98.333C81.1626 98.333 82.9146 96.585 82.9146 94.429C82.9146 93.749 82.7346 93.073 82.3506 92.409C78.5026 85.941 69.3506 72.845 69.3506 58.569C69.3506 49.333 80.3546 47.925 87.6026 46.049C89.3746 45.653 90.6666 44.049 90.6666 42.237C90.6666 40.085 88.9106 38.333 86.7586 38.333ZM58.7586 18.333C64.2546 18.333 68.7106 22.813 68.7106 28.333C68.7106 33.853 64.2546 38.333 58.7586 38.333C53.2666 38.333 48.8026 33.853 48.8026 28.333C48.8026 22.813 53.2666 18.333 58.7586 18.333Z" fill="white"/>
</svg>
