<svg width="34" height="34" viewBox="0 0 34 34" fill="none" xmlns="http://www.w3.org/2000/svg">
<circle cx="17" cy="17" r="17" fill="#0E4AC0"/>
<g clip-path="url(#clip0_228_1304)">
<path d="M19.523 23.7872C19.523 23.7872 24.024 19.2822 25.778 17.5272C25.924 17.3812 25.997 17.1892 25.997 16.9972C25.997 16.8052 25.924 16.6142 25.778 16.4672C24.025 14.7132 19.523 10.2092 19.523 10.2092C19.379 10.0642 19.189 9.99219 18.999 9.99219C18.806 9.99219 18.614 10.0662 18.467 10.2132C18.174 10.5052 18.172 10.9792 18.463 11.2692L23.441 16.2472H8.74902C8.33502 16.2472 7.99902 16.5832 7.99902 16.9972C7.99902 17.4112 8.33502 17.7472 8.74902 17.7472H23.441L18.462 22.7262C18.173 23.0152 18.176 23.4882 18.468 23.7802C18.616 23.9282 18.809 24.0022 19.001 24.0022C19.191 24.0022 19.379 23.9302 19.523 23.7872Z" fill="white"/>
</g>
<defs>
<clipPath id="clip0_228_1304">
<rect width="24" height="24" fill="white" transform="translate(5 5.09082)"/>
</clipPath>
</defs>
</svg>
