<svg width="34" height="34" viewBox="0 0 34 34" fill="none" xmlns="http://www.w3.org/2000/svg">
<circle cx="17" cy="17" r="17" fill="#0E4AC0"/>
<g clip-path="url(#clip0_228_1374)">
<path d="M17 7.25382C20.204 7.25382 20.584 7.26582 21.85 7.32382C25.102 7.47182 26.621 9.01482 26.769 12.2428C26.827 13.5078 26.838 13.8878 26.838 17.0918C26.838 20.2968 26.826 20.6758 26.769 21.9408C26.62 25.1658 25.105 26.7118 21.85 26.8598C20.584 26.9178 20.206 26.9298 17 26.9298C13.796 26.9298 13.416 26.9178 12.151 26.8598C8.891 26.7108 7.38 25.1608 7.232 21.9398C7.174 20.6748 7.162 20.2958 7.162 17.0908C7.162 13.8868 7.175 13.5078 7.232 12.2418C7.381 9.01482 8.896 7.47082 12.151 7.32282C13.417 7.26582 13.796 7.25382 17 7.25382ZM17 5.09082C13.741 5.09082 13.333 5.10482 12.053 5.16282C7.695 5.36282 5.273 7.78082 5.073 12.1428C5.014 13.4238 5 13.8318 5 17.0908C5 20.3498 5.014 20.7588 5.072 22.0388C5.272 26.3968 7.69 28.8188 12.052 29.0188C13.333 29.0768 13.741 29.0908 17 29.0908C20.259 29.0908 20.668 29.0768 21.948 29.0188C26.302 28.8188 28.73 26.4008 28.927 22.0388C28.986 20.7588 29 20.3498 29 17.0908C29 13.8318 28.986 13.4238 28.928 12.1438C28.732 7.78982 26.311 5.36382 21.949 5.16382C20.668 5.10482 20.259 5.09082 17 5.09082V5.09082ZM17 10.9288C13.597 10.9288 10.838 13.6878 10.838 17.0908C10.838 20.4938 13.597 23.2538 17 23.2538C20.403 23.2538 23.162 20.4948 23.162 17.0908C23.162 13.6878 20.403 10.9288 17 10.9288ZM17 21.0908C14.791 21.0908 13 19.3008 13 17.0908C13 14.8818 14.791 13.0908 17 13.0908C19.209 13.0908 21 14.8818 21 17.0908C21 19.3008 19.209 21.0908 17 21.0908ZM23.406 9.24582C22.61 9.24582 21.965 9.89082 21.965 10.6858C21.965 11.4808 22.61 12.1258 23.406 12.1258C24.201 12.1258 24.845 11.4808 24.845 10.6858C24.845 9.89082 24.201 9.24582 23.406 9.24582Z" fill="white"/>
</g>
<defs>
<clipPath id="clip0_228_1374">
<rect width="24" height="24" fill="white" transform="translate(5 5.09082)"/>
</clipPath>
</defs>
</svg>
