<svg width="34" height="34" viewBox="0 0 34 34" fill="none" xmlns="http://www.w3.org/2000/svg">
<circle cx="17" cy="17" r="17" fill="#0E4AC0"/>
<g clip-path="url(#clip0_228_1426)">
<path d="M17 7.5C20.196 7.5 23 10.118 23 13.102C23 16.195 20.507 20.234 17 25.763C13.493 20.234 11 16.195 11 13.102C11 10.118 13.804 7.5 17 7.5ZM17 5.5C12.802 5.5 9 8.903 9 13.102C9 17.3 12.469 22.312 17 29.5C21.531 22.312 25 17.3 25 13.102C25 8.903 21.199 5.5 17 5.5V5.5ZM17 18.5C15.343 18.5 14 17.157 14 15.5C14 13.843 15.343 12.5 17 12.5C18.657 12.5 20 13.843 20 15.5C20 17.157 18.657 18.5 17 18.5Z" fill="white"/>
</g>
<defs>
<clipPath id="clip0_228_1426">
<rect width="24" height="24" fill="white" transform="translate(5 5.5)"/>
</clipPath>
</defs>
</svg>
