<svg width="87" height="40" viewBox="0 0 87 40" fill="none" xmlns="http://www.w3.org/2000/svg">
<rect y="0.227295" width="39.5455" height="39.5455" rx="3.95455" fill="white"/>
<rect x="7.90894" y="6.15918" width="23.4694" height="5.58794" rx="2.23518" fill="#0E4AC0"/>
<rect x="16.8494" y="31.8636" width="23.4694" height="4.47036" rx="2.23518" transform="rotate(-90 16.8494 31.8636)" fill="#0E4AC0"/>
<path d="M25.021 6.15918H29.1237C30.3582 6.15918 31.3589 7.1599 31.3589 8.39436V9.51194C31.3589 10.7464 30.3582 11.7471 29.1237 11.7471H25.021V6.15918Z" fill="#0E4AC0"/>
<path d="M7.90894 8.39436C7.90894 7.1599 8.90966 6.15918 10.1441 6.15918H14.2468V11.7471H10.1441C8.90966 11.7471 7.90894 10.7464 7.90894 9.51194V8.39436Z" fill="#0E4AC0"/>
<path d="M52.6718 16.9537C53.1034 16.9537 53.4533 17.3035 53.4533 17.7351C53.4533 18.1666 53.1034 18.5165 52.6718 18.5165H49.4466V30.7142C49.4466 31.2441 49.0171 31.6736 48.4872 31.6736C47.9573 31.6736 47.5277 31.2441 47.5277 30.7142V18.5165H44.2814C43.8498 18.5165 43.5 18.1666 43.5 17.7351C43.5 17.3035 43.8498 16.9537 44.2814 16.9537H52.6718Z" fill="white"/>
<path d="M57.7343 21.98C58.0717 21.3183 58.5497 20.8044 59.1683 20.4383C59.5552 20.2144 59.992 20.059 60.4789 19.972C61.0185 19.8756 61.4668 20.3336 61.4668 20.8818V21.3683C61.4668 21.6478 61.2402 21.8744 60.9607 21.8744C58.8098 21.8744 57.7343 23.043 57.7343 25.3802V30.7142C57.7343 31.2441 57.3047 31.6736 56.7748 31.6736C56.2449 31.6736 55.8154 31.2441 55.8154 30.7142V21.0599C55.8154 20.53 56.2449 20.1004 56.7748 20.1004C57.3047 20.1004 57.7343 20.53 57.7343 21.0599V21.98Z" fill="white"/>
<path d="M62.965 25.8448C62.965 24.6621 63.204 23.6273 63.682 22.7403C64.1599 21.8392 64.8136 21.1423 65.6431 20.6495C66.4866 20.1567 67.4215 19.9103 68.4477 19.9103C69.4599 19.9103 70.3385 20.1286 71.0836 20.565C71.8287 21.0015 72.384 21.5506 72.7495 22.2123V21.0704C72.7495 20.5347 73.1838 20.1004 73.7196 20.1004C74.2553 20.1004 74.6896 20.5347 74.6896 21.0704V30.7036C74.6896 31.2393 74.2553 31.6736 73.7196 31.6736C73.1838 31.6736 72.7495 31.2394 72.7495 30.7036V29.5195C72.37 30.1953 71.8006 30.7585 71.0415 31.209C70.2964 31.6455 69.4248 31.8637 68.4266 31.8637C67.4004 31.8637 66.4725 31.6103 65.6431 31.1034C64.8136 30.5966 64.1599 29.8856 63.682 28.9704C63.204 28.0552 62.965 27.0134 62.965 25.8448ZM72.7495 25.8659C72.7495 24.993 72.5738 24.2327 72.2223 23.585C71.8709 22.9374 71.3929 22.4446 70.7884 22.1067C70.198 21.7547 69.5443 21.5787 68.8273 21.5787C68.1103 21.5787 67.4566 21.7477 66.8662 22.0856C66.2757 22.4235 65.8048 22.9163 65.4533 23.5639C65.1018 24.2116 64.9261 24.9719 64.9261 25.8448C64.9261 26.7318 65.1018 27.5061 65.4533 28.1679C65.8048 28.8155 66.2757 29.3153 66.8662 29.6673C67.4566 30.0052 68.1103 30.1742 68.8273 30.1742C69.5443 30.1742 70.198 30.0052 70.7884 29.6673C71.3929 29.3153 71.8709 28.8155 72.2223 28.1679C72.5738 27.5061 72.7495 26.7388 72.7495 25.8659Z" fill="white"/>
<path d="M84.8107 31.6736C84.5401 31.6736 84.2824 31.5578 84.1027 31.3553L79.8514 26.5628V30.7142C79.8514 31.2441 79.4218 31.6736 78.8919 31.6736C78.362 31.6736 77.9324 31.2441 77.9324 30.7142V17.005C77.9324 16.4751 78.362 16.0455 78.8919 16.0455C79.4218 16.0455 79.8514 16.4751 79.8514 17.005V25.2323L84.0122 20.4333C84.1955 20.2218 84.4616 20.1004 84.7414 20.1004C85.5877 20.1004 86.0241 21.1122 85.4433 21.7278L81.5384 25.8659L85.5002 30.0788C86.0683 30.6829 85.64 31.6736 84.8107 31.6736Z" fill="white"/>
</svg>
