<svg width="88" height="39" viewBox="0 0 88 39" fill="none" xmlns="http://www.w3.org/2000/svg">
<rect x="0.5" width="39.5455" height="39" rx="3.95455" fill="#0E4AC0"/>
<rect x="8.40906" y="5.8501" width="23.4694" height="5.51087" rx="2.23518" fill="white"/>
<rect x="17.3496" y="31.2001" width="23.1457" height="4.47036" rx="2.23518" transform="rotate(-90 17.3496 31.2001)" fill="white"/>
<path d="M25.521 5.8501H29.6237C30.8582 5.8501 31.8589 6.85082 31.8589 8.08528V9.12579C31.8589 10.3602 30.8582 11.361 29.6237 11.361H25.521V5.8501Z" fill="white"/>
<path d="M8.40906 8.08528C8.40906 6.85082 9.40978 5.8501 10.6442 5.8501H14.7469V11.361H10.6442C9.40978 11.361 8.40906 10.3602 8.40906 9.12579V8.08528Z" fill="white"/>
<path d="M53.1826 16.4957C53.6082 16.4957 53.9533 16.8407 53.9533 17.2663C53.9533 17.6919 53.6082 18.0369 53.1826 18.0369H49.9466V30.0532C49.9466 30.5831 49.5171 31.0126 48.9872 31.0126C48.4573 31.0126 48.0277 30.5831 48.0277 30.0532V18.0369H44.7706C44.345 18.0369 44 17.6919 44 17.2663C44 16.8407 44.345 16.4957 44.7706 16.4957H53.1826Z" fill="#0E4AC0"/>
<path d="M58.2343 21.4527C58.5717 20.8001 59.0497 20.2933 59.6683 19.9323C60.0587 19.7095 60.5 19.5554 60.9922 19.4701C61.5249 19.3778 61.9668 19.829 61.9668 20.3697V20.8425C61.9668 21.122 61.7402 21.3486 61.4607 21.3486C59.3098 21.3486 58.2343 22.501 58.2343 24.806V30.0532C58.2343 30.5831 57.8047 31.0126 57.2748 31.0126C56.7449 31.0126 56.3154 30.5831 56.3154 30.0532V20.5585C56.3154 20.0286 56.7449 19.599 57.2748 19.599C57.8047 19.599 58.2343 20.0286 58.2343 20.5585V21.4527Z" fill="#0E4AC0"/>
<path d="M63.465 25.2642C63.465 24.0978 63.704 23.0773 64.182 22.2025C64.6599 21.3138 65.3136 20.6265 66.1431 20.1406C66.9866 19.6546 67.9215 19.4116 68.9477 19.4116C69.9599 19.4116 70.8385 19.6268 71.5836 20.0572C72.3287 20.4877 72.884 21.0292 73.2495 21.6818V20.569C73.2495 20.0333 73.6838 19.599 74.2196 19.599C74.7553 19.599 75.1896 20.0333 75.1896 20.569V30.0426C75.1896 30.5784 74.7553 31.0126 74.2196 31.0126C73.6838 31.0126 73.2495 30.5784 73.2495 30.0426V28.8882C72.87 29.5547 72.3006 30.1101 71.5415 30.5544C70.7964 30.9849 69.9248 31.2001 68.9266 31.2001C67.9004 31.2001 66.9725 30.9502 66.1431 30.4503C65.3136 29.9504 64.6599 29.2492 64.182 28.3467C63.704 27.4442 63.465 26.4167 63.465 25.2642ZM73.2495 25.285C73.2495 24.4241 73.0738 23.6743 72.7223 23.0356C72.3709 22.3969 71.8929 21.9109 71.2884 21.5777C70.698 21.2305 70.0443 21.057 69.3273 21.057C68.6103 21.057 67.9566 21.2236 67.3662 21.5568C66.7757 21.8901 66.3048 22.3761 65.9533 23.0148C65.6018 23.6535 65.4261 24.4033 65.4261 25.2642C65.4261 26.139 65.6018 26.9026 65.9533 27.5552C66.3048 28.194 66.7757 28.6869 67.3662 29.034C67.9566 29.3673 68.6103 29.5339 69.3273 29.5339C70.0443 29.5339 70.698 29.3673 71.2884 29.034C71.8929 28.6869 72.3709 28.194 72.7223 27.5552C73.0738 26.9026 73.2495 26.1459 73.2495 25.285Z" fill="#0E4AC0"/>
<path d="M85.3041 31.0126C85.0374 31.0126 84.7833 30.8994 84.605 30.7012L80.3514 25.9723V30.0532C80.3514 30.5831 79.9218 31.0126 79.3919 31.0126C78.862 31.0126 78.4324 30.5831 78.4324 30.0532V16.5596C78.4324 16.0297 78.862 15.6001 79.3919 15.6001C79.9218 15.6001 80.3514 16.0297 80.3514 16.5596V24.6602L84.5144 19.9248C84.6965 19.7177 84.9588 19.599 85.2345 19.599C86.0786 19.599 86.5108 20.6108 85.9273 21.2207L82.0384 25.285L85.9846 29.4234C86.5553 30.0219 86.1311 31.0126 85.3041 31.0126Z" fill="#0E4AC0"/>
</svg>
