<svg width="34" height="34" viewBox="0 0 34 34" fill="none" xmlns="http://www.w3.org/2000/svg">
<circle cx="17" cy="17" r="17" fill="#0E4AC0"/>
<g clip-path="url(#clip0_228_1369)">
<path d="M29 9.64787C28.117 10.0399 27.168 10.3039 26.172 10.4229C27.189 9.81387 27.97 8.84887 28.337 7.69887C27.386 8.26287 26.332 8.67287 25.21 8.89387C24.313 7.93687 23.032 7.33887 21.616 7.33887C18.437 7.33887 16.101 10.3049 16.819 13.3839C12.728 13.1789 9.1 11.2189 6.671 8.23987C5.381 10.4529 6.002 13.3479 8.194 14.8139C7.388 14.7879 6.628 14.5669 5.965 14.1979C5.911 16.4789 7.546 18.6129 9.914 19.0879C9.221 19.2759 8.462 19.3199 7.69 19.1719C8.316 21.1279 10.134 22.5509 12.29 22.5909C10.22 24.2139 7.612 24.9389 5 24.6309C7.179 26.0279 9.768 26.8429 12.548 26.8429C21.69 26.8429 26.855 19.1219 26.543 12.1969C27.505 11.5019 28.34 10.6349 29 9.64787V9.64787Z" fill="white"/>
</g>
<defs>
<clipPath id="clip0_228_1369">
<rect width="24" height="24" fill="white" transform="translate(5 5.09082)"/>
</clipPath>
</defs>
</svg>
